<svg xmlns="http://www.w3.org/2000/svg" version="1.1" xmlns:xlink="http://www.w3.org/1999/xlink" xmlns:svgjs="http://svgjs.dev/svgjs" width="2000" height="2214" viewBox="0 0 2000 2214"><g transform="matrix(1,0,0,1,-0.8670432383946718,-3.569895872594998)"><svg viewBox="0 0 224 248" data-background-color="#ffffff" preserveAspectRatio="xMidYMid meet" height="2214" width="2000" xmlns="http://www.w3.org/2000/svg" xmlns:xlink="http://www.w3.org/1999/xlink"><g id="tight-bounds" transform="matrix(1,0,0,1,0.0971088427002087,0.40012006485832785)"><svg viewBox="0 0 223.80578231459955 247.2" height="247.2" width="223.80578231459955"><g><svg viewBox="0 0 223.80578231459955 247.2" height="247.2" width="223.80578231459955"><g><svg viewBox="0 0 245.672304 271.3522095842578" height="247.2" width="223.80578231459955"><g><svg viewBox="0 0 245.672304 271.3522095842578" height="271.3522095842578" width="245.672304"><g id="textblocktransform"><svg viewBox="0 0 245.672304 271.3522095842578" height="271.3522095842578" width="245.672304" id="textblock"><g><svg viewBox="0 0 245.672304 245.672304" height="245.672304" width="245.672304"><g transform="matrix(1,0,0,1,79.40701397296925,79.40701397296925)"><svg viewBox="0 0 86.85827605406149 86.85827605406149" height="86.85827605406149" width="86.85827605406149"><g id="icon-0"><svg xmlns="http://www.w3.org/2000/svg" xmlns:xlink="http://www.w3.org/1999/xlink" version="1.1" x="0" y="0" viewBox="5 5 90 90" enable-background="new 0 0 100 100" xml:space="preserve" height="86.85827605406149" width="86.85827605406149" class="icon-jxe-0" data-fill-palette-color="accent" id="jxe-0"><g fill="#f9744c" data-fill-palette-color="accent"><path d="M44.113 32.5L27.989 18.025 46.624 30.78C44.701 25.987 37.383 11.849 18.138 12.604 18.138 12.604 20.18 31.458 44.113 32.5" fill="#f9744c" data-fill-palette-color="accent"></path><path d="M54.862 24.5C72.496 23.733 74.862 8.417 74.862 8.417 60.681 7.86 54.513 19.286 53.095 22.818L68.78 12.167z" fill="#f9744c" data-fill-palette-color="accent"></path><polygon points="53.18,53.667 50.862,5.259 48.546,53.667 5.167,53.667 5.167,56.834 95,56.834 95,53.667  " fill="#f9744c" data-fill-palette-color="accent"></polygon></g><rect x="36.167" y="59.027" width="30.833" height="2.621" fill="#f9744c" data-fill-palette-color="accent"></rect><rect x="51.668" y="80.491" width="25.999" height="2.622" fill="#f9744c" data-fill-palette-color="accent"></rect><rect x="12.583" y="71.834" width="49.178" height="2.622" fill="#f9744c" data-fill-palette-color="accent"></rect><rect x="6.667" y="64.821" width="33.811" height="2.622" fill="#f9744c" data-fill-palette-color="accent"></rect><rect x="63.301" y="64.821" width="29.865" height="2.622" fill="#f9744c" data-fill-palette-color="accent"></rect><rect x="44.328" y="64.821" width="10.895" height="2.622" fill="#f9744c" data-fill-palette-color="accent"></rect><rect x="26.833" y="80.491" width="11.499" height="2.622" fill="#f9744c" data-fill-palette-color="accent"></rect><rect x="77.346" y="71.904" width="11.737" height="2.622" fill="#f9744c" data-fill-palette-color="accent"></rect><rect x="5.334" y="59.027" width="17.333" height="2.621" fill="#f9744c" data-fill-palette-color="accent"></rect><rect x="76.333" y="59.027" width="18.666" height="2.621" fill="#f9744c" data-fill-palette-color="accent"></rect></svg></g></svg></g><g id="text-0"><path d="M5.974 87.094l7.145 2.398 3.038-9.052 2.539 0.852-3.037 9.052 8.259 2.772 1.406-4.192c0.526-1.567 0.957-2.893 1.293-3.977 0.336-1.085 0.557-1.963 0.663-2.634v0l2.861 0.96-4.692 13.98c-0.595-0.333-1.491-0.71-2.686-1.133-1.196-0.422-2.577-0.896-4.144-1.422v0l-9.373-3.145c-1.567-0.526-2.955-0.981-4.163-1.366-1.208-0.384-2.15-0.624-2.826-0.717v0l4.532-13.508 2.625 0.881z" fill="#f9744c" data-fill-palette-color="primary"></path><path d="M40.959 57.884v0l2.59 1.403c0.041 1.056-0.069 2.027-0.33 2.913-0.252 0.884-0.738 1.844-1.458 2.879v0c-0.857 1.231-1.923 2.151-3.197 2.761-1.274 0.609-2.65 0.844-4.129 0.703-1.474-0.137-2.941-0.713-4.401-1.73v0c-1.384-0.963-2.444-2.135-3.183-3.514-0.738-1.379-1.079-2.842-1.021-4.387 0.066-1.547 0.608-3.051 1.624-4.511v0c0.637-0.915 1.296-1.629 1.977-2.142 0.675-0.517 1.363-0.907 2.065-1.171v0l2.14 2.206c-0.886 0.297-1.66 0.676-2.321 1.138-0.665 0.467-1.242 1.052-1.732 1.755v0c-0.85 1.22-1.113 2.562-0.788 4.025 0.329 1.467 1.306 2.765 2.929 3.896v0c1.476 1.028 2.94 1.469 4.392 1.323 1.452-0.146 2.641-0.883 3.567-2.212v0c0.573-0.823 0.956-1.676 1.151-2.559 0.195-0.884 0.236-1.809 0.125-2.776z" fill="#f9744c" data-fill-palette-color="primary"></path><path d="M48.55 44.157v0c-1.215-1.484-1.958-2.978-2.227-4.482-0.27-1.503-0.148-2.916 0.366-4.237 0.518-1.316 1.342-2.437 2.472-3.362v0c1.192-0.975 2.458-1.566 3.799-1.772 1.345-0.201 2.695 0.007 4.049 0.623 1.354 0.616 2.638 1.666 3.853 3.151v0c1.219 1.49 1.96 2.976 2.223 4.46 0.261 1.493 0.131 2.89-0.39 4.192-0.522 1.311-1.354 2.433-2.494 3.367v0c-1.181 0.967-2.443 1.558-3.786 1.773-1.338 0.22-2.68 0.028-4.024-0.578-1.341-0.601-2.621-1.646-3.841-3.135zM50.946 42.195v0c1.24 1.515 2.555 2.408 3.943 2.679 1.383 0.275 2.632-0.044 3.746-0.957v0c1.048-0.858 1.592-2.006 1.632-3.445 0.04-1.439-0.56-2.917-1.801-4.432v0c-1.245-1.52-2.565-2.426-3.96-2.716-1.405-0.291-2.665 0.02-3.78 0.932v0c-1.043 0.854-1.578 2.012-1.606 3.476-0.027 1.455 0.581 2.942 1.826 4.463z" fill="#f9744c" data-fill-palette-color="primary"></path><path d="M73.25 12.521l3.049 7.078 8.925-3.845 1.059 2.46-8.924 3.845 1.591 3.694c0.654 1.518 1.245 2.857 1.774 4.017 0.523 1.163 0.969 2.022 1.339 2.578v0l-3.384 1.458c-0.149-0.666-0.466-1.585-0.949-2.757-0.483-1.172-1.052-2.517-1.706-4.035v0l-3.876-8.998c-0.654-1.518-1.247-2.87-1.781-4.057-0.53-1.181-0.986-2.054-1.367-2.62v0l13.387-5.768 1.095 2.542z" fill="#f9744c" data-fill-palette-color="primary"></path><path d="M104.106 7.926v0l3.309-0.555c0.252 1.499 0.503 2.995 0.753 4.487 0.252 1.499 0.504 3.005 0.758 4.517v0c0.118 0.7 0.274 1.553 0.47 2.556 0.195 1.004 0.4 1.982 0.614 2.936 0.213 0.947 0.402 1.713 0.567 2.298v0l-3.388 0.568c-0.133-0.792-0.289-1.722-0.468-2.788-0.18-1.074-0.359-2.141-0.537-3.201-0.178-1.06-0.333-1.984-0.465-2.77v0c-0.269-1.604-0.539-3.133-0.81-4.588-0.278-1.454-0.545-2.607-0.803-3.46zM102.88 2.609v0c-0.103-0.615 0.001-1.175 0.314-1.678 0.314-0.497 0.772-0.796 1.374-0.897v0c0.615-0.103 1.165 0.026 1.651 0.39 0.479 0.37 0.771 0.863 0.874 1.478v0c0.101 0.602-0.014 1.16-0.345 1.674-0.339 0.508-0.816 0.813-1.431 0.916v0c-0.602 0.101-1.133-0.035-1.593-0.409-0.461-0.38-0.742-0.872-0.844-1.474z" fill="#f9744c" data-fill-palette-color="primary"></path><path d="M136.681 20.739v0l-0.181 2.672c-0.801 0.438-1.56 0.736-2.276 0.894-0.715 0.151-1.368 0.207-1.957 0.167v0c-0.874-0.059-1.656-0.255-2.346-0.588-0.696-0.333-1.232-0.872-1.607-1.616-0.375-0.751-0.519-1.765-0.432-3.043v0c0.027-0.404 0.072-1.063 0.134-1.977 0.062-0.914 0.135-1.99 0.219-3.229 0.084-1.245 0.175-2.579 0.271-4.003 0.096-1.417 0.193-2.844 0.29-4.282 0.097-1.437 0.189-2.791 0.276-4.063v0l3.089 0.21c-0.097 1.424-0.2 2.947-0.309 4.569-0.11 1.623-0.216 3.192-0.32 4.709-0.103 1.517-0.192 2.834-0.268 3.954-0.076 1.119-0.128 1.891-0.157 2.314v0c-0.078 1.146-0.061 2.025 0.051 2.638 0.111 0.613 0.315 1.039 0.612 1.279 0.297 0.233 0.697 0.367 1.2 0.401v0c0.914 0.062 2.151-0.273 3.711-1.006zM137.227 7.683l-0.165 2.424-11.871-0.805 0.165-2.424z" fill="#f9744c" data-fill-palette-color="primary"></path><path d="M183.686 14.882l-10.645 18.905 3.27 1.842c1.44 0.811 2.722 1.518 3.846 2.119 1.124 0.602 2.005 1.019 2.644 1.25v0l-1.48 2.628-12.632-7.113c0.439-0.522 0.978-1.331 1.618-2.426 0.639-1.095 1.365-2.362 2.175-3.802v0l4.852-8.615c0.811-1.44 1.519-2.717 2.123-3.832 0.605-1.114 1.017-1.995 1.236-2.641v0z" fill="#f9744c" data-fill-palette-color="primary"></path><path d="M203.762 38.19v0l2.472 2.27c-1.028 1.12-2.054 2.237-3.077 3.351-1.028 1.12-2.061 2.244-3.098 3.374v0c-0.48 0.523-1.056 1.17-1.728 1.941-0.672 0.771-1.318 1.534-1.939 2.289-0.616 0.75-1.104 1.37-1.464 1.859v0l-2.53-2.323c0.543-0.592 1.181-1.286 1.912-2.083 0.736-0.802 1.468-1.599 2.195-2.391 0.727-0.792 1.36-1.482 1.899-2.068v0c1.1-1.198 2.141-2.351 3.122-3.46 0.977-1.113 1.722-2.033 2.236-2.759zM207.204 33.956v0c0.422-0.46 0.928-0.721 1.516-0.783 0.585-0.058 1.102 0.12 1.552 0.532v0c0.46 0.422 0.695 0.936 0.707 1.542 0.002 0.606-0.207 1.139-0.629 1.598v0c-0.413 0.45-0.924 0.702-1.532 0.756-0.609 0.045-1.143-0.144-1.603-0.566v0c-0.45-0.413-0.669-0.916-0.656-1.508 0.017-0.597 0.232-1.121 0.645-1.571z" fill="#f9744c" data-fill-palette-color="primary"></path><path d="M222.06 55.623v0c2.083-1.398 3.933-2.025 5.551-1.879 1.611 0.15 2.92 0.974 3.926 2.473v0c0.755 1.124 1.116 2.365 1.083 3.722v0l-2.645 0.864c0.054-1.123-0.214-2.123-0.802-2.999v0c-0.485-0.722-1.114-1.099-1.887-1.132-0.779-0.029-1.761 0.354-2.946 1.15v0c-0.298 0.2-0.785 0.527-1.463 0.982-0.672 0.451-1.438 0.966-2.299 1.543-0.86 0.577-1.714 1.15-2.562 1.72-0.849 0.57-1.601 1.075-2.257 1.515-0.661 0.444-1.122 0.753-1.381 0.926v0c-1.345 0.903-2.621 1.807-3.827 2.713-1.207 0.906-2.127 1.679-2.76 2.32v0l-2.009-2.993c1.301-0.873 2.665-1.789 4.093-2.746 1.427-0.958 2.825-1.896 4.191-2.814 1.367-0.917 2.623-1.761 3.77-2.53 1.146-0.769 2.094-1.406 2.844-1.909 0.75-0.503 1.21-0.812 1.38-0.926zM221.849 64.938l-6.115-9.111 2.018-1.353 6.115 9.11z" fill="#f9744c" data-fill-palette-color="primary"></path><path d="M228.694 95.48v0l-4.332-11.689 2.203-0.817 3.291 8.879c1.351-0.501 2.243-1.253 2.678-2.256 0.444-1 0.453-2.072 0.029-3.218v0c-0.508-1.369-1.394-2.262-2.66-2.677-1.262-0.424-2.935-0.25-5.02 0.522v0c-1.942 0.72-3.207 1.727-3.796 3.022-0.587 1.301-0.61 2.679-0.071 4.135v0c0.376 1.015 0.86 1.968 1.453 2.86 0.599 0.889 1.365 1.706 2.299 2.45v0l-2.481 1.27c-0.983-0.896-1.786-1.819-2.408-2.771-0.619-0.946-1.154-2.025-1.604-3.239v0c-0.494-1.332-0.645-2.685-0.453-4.058 0.189-1.38 0.765-2.644 1.727-3.794 0.953-1.153 2.32-2.06 4.099-2.719v0c1.736-0.644 3.359-0.898 4.867-0.764 1.504 0.143 2.817 0.648 3.938 1.514 1.127 0.864 1.978 2.07 2.552 3.62v0c0.48 1.295 0.656 2.447 0.528 3.457-0.124 1.002-0.464 1.881-1.018 2.639-0.557 0.751-1.24 1.391-2.05 1.918-0.81 0.527-1.657 0.954-2.541 1.281v0c-0.137 0.051-0.336 0.125-0.597 0.222-0.268 0.099-0.478 0.17-0.633 0.213z" fill="#f9744c" data-fill-palette-color="primary"></path><path d="M32.506 155.996l-7.91 2.719 3.444 10.018-2.815 0.968-3.444-10.018-9.143 3.142 1.592 4.633c0.598 1.739 1.116 3.196 1.556 4.372 0.435 1.184 0.833 2.107 1.194 2.769v0l-3.164 1.087-5.318-15.47c0.746-0.116 1.789-0.39 3.129-0.823 1.339-0.432 2.875-0.946 4.608-1.542v0l10.376-3.566c1.733-0.596 3.26-1.135 4.582-1.617 1.322-0.483 2.313-0.907 2.973-1.275v0l5.137 14.943-2.9 0.997z" fill="#f9744c" data-fill-palette-color="primary"></path><path d="M34.972 200.135v0l-2.432 2.181c-1.125-0.357-2.099-0.833-2.922-1.429-0.832-0.598-1.654-1.467-2.465-2.608v0c-0.962-1.353-1.522-2.811-1.681-4.376-0.155-1.559 0.114-3.082 0.807-4.569 0.695-1.496 1.847-2.815 3.454-3.957v0c1.526-1.085 3.148-1.753 4.865-2.006 1.724-0.256 3.381-0.062 4.972 0.583 1.59 0.645 2.957 1.771 4.099 3.377v0c0.719 1.012 1.219 1.967 1.5 2.867 0.285 0.905 0.432 1.77 0.44 2.595v0l-3.102 1.411c0.022-1.034-0.084-1.985-0.317-2.853-0.234-0.868-0.628-1.691-1.182-2.47v0c-0.954-1.342-2.258-2.117-3.913-2.325-1.655-0.208-3.375 0.322-5.16 1.592v0c-1.628 1.158-2.64 2.524-3.035 4.1-0.395 1.576-0.073 3.094 0.966 4.554v0c0.646 0.909 1.395 1.63 2.247 2.165 0.852 0.534 1.805 0.924 2.859 1.168z" fill="#f9744c" data-fill-palette-color="primary"></path><path d="M48.849 207.712v0c1.331-1.664 2.783-2.815 4.355-3.452 1.567-0.642 3.125-0.836 4.675-0.584 1.549 0.253 2.958 0.887 4.228 1.903v0c1.337 1.07 2.271 2.31 2.8 3.72 0.53 1.41 0.617 2.921 0.263 4.532-0.354 1.612-1.197 3.25-2.528 4.914v0c-1.331 1.664-2.776 2.812-4.335 3.443-1.555 0.626-3.103 0.808-4.643 0.545-1.535-0.259-2.941-0.899-4.216-1.919v0c-1.327-1.061-2.262-2.294-2.805-3.698-0.543-1.404-0.644-2.904-0.302-4.5 0.341-1.606 1.177-3.241 2.508-4.904zM51.539 209.864v0c-1.356 1.695-2.022 3.325-1.999 4.89 0.023 1.565 0.659 2.848 1.908 3.847v0c1.171 0.937 2.544 1.261 4.118 0.973 1.574-0.288 3.038-1.28 4.394-2.975v0c1.364-1.705 2.038-3.351 2.023-4.935-0.006-1.586-0.634-2.879-1.884-3.878v0c-1.171-0.937-2.55-1.249-4.134-0.936-1.586 0.304-3.061 1.308-4.426 3.014z" fill="#f9744c" data-fill-palette-color="primary"></path><path d="M85.277 213.79l-3.282 7.899 9.949 4.133-1.142 2.749-9.949-4.133-1.711 4.119c-0.703 1.692-1.316 3.194-1.84 4.508-0.518 1.316-0.853 2.338-1.004 3.065v0l-3.779-1.57c0.408-0.636 0.894-1.598 1.458-2.887 0.564-1.289 1.198-2.78 1.901-4.472v0l4.171-10.041c0.705-1.698 1.321-3.214 1.847-4.548 0.528-1.34 0.873-2.379 1.036-3.117v0l14.932 6.204-1.177 2.832z" fill="#f9744c" data-fill-palette-color="primary"></path><path d="M108.233 225.869v0l3.668 0.576c-0.26 1.659-0.521 3.321-0.782 4.987-0.261 1.666-0.524 3.338-0.787 5.016v0c-0.123 0.787-0.256 1.74-0.399 2.86-0.143 1.126-0.272 2.228-0.388 3.306-0.114 1.071-0.184 1.943-0.209 2.618v0l-3.767-0.592c0.138-0.879 0.301-1.915 0.488-3.108 0.186-1.187 0.372-2.371 0.557-3.551 0.185-1.18 0.346-2.207 0.483-3.079v0c0.28-1.784 0.531-3.491 0.754-5.122 0.221-1.625 0.349-2.929 0.382-3.911zM108.796 219.84v0c0.108-0.689 0.417-1.241 0.925-1.659 0.501-0.412 1.09-0.565 1.766-0.459v0c0.682 0.107 1.212 0.435 1.589 0.985 0.383 0.557 0.52 1.18 0.412 1.869v0c-0.105 0.669-0.426 1.213-0.962 1.633-0.53 0.421-1.135 0.578-1.817 0.471v0c-0.675-0.106-1.188-0.438-1.537-0.998-0.356-0.56-0.481-1.174-0.376-1.842z" fill="#f9744c" data-fill-palette-color="primary"></path><path d="M138.957 240.855v0l0.223 2.958c-0.813 0.607-1.598 1.052-2.356 1.336-0.764 0.284-1.474 0.45-2.129 0.499v0c-0.966 0.073-1.855-0.02-2.667-0.278-0.818-0.258-1.492-0.766-2.022-1.526-0.53-0.759-0.848-1.85-0.955-3.273v0c-0.033-0.443-0.088-1.172-0.165-2.184-0.077-1.019-0.167-2.217-0.27-3.594-0.104-1.377-0.215-2.853-0.333-4.428-0.118-1.575-0.238-3.161-0.358-4.756-0.12-1.595-0.233-3.098-0.339-4.508v0l3.436-0.258c0.119 1.582 0.246 3.273 0.381 5.073 0.135 1.8 0.266 3.541 0.393 5.223 0.126 1.681 0.236 3.141 0.329 4.378 0.094 1.244 0.158 2.102 0.194 2.572v0c0.096 1.271 0.251 2.234 0.467 2.89 0.216 0.656 0.508 1.09 0.877 1.302 0.363 0.219 0.822 0.308 1.377 0.266v0c1.013-0.076 2.318-0.64 3.917-1.692zM137.502 226.416l0.202 2.691-13.165 0.99-0.203-2.691z" fill="#f9744c" data-fill-palette-color="primary"></path><path d="M166.968 207.321l11.783 20.995 3.63-2.037c1.598-0.897 3.005-1.705 4.221-2.427 1.22-0.715 2.123-1.31 2.71-1.783v0l1.637 2.917-14.022 7.87c-0.248-0.713-0.705-1.69-1.371-2.93-0.666-1.24-1.447-2.659-2.343-4.257v0l-5.37-9.568c-0.897-1.598-1.701-3.003-2.413-4.217-0.712-1.214-1.308-2.113-1.787-2.697v0z" fill="#f9744c" data-fill-palette-color="primary"></path><path d="M191.274 200.206v0l2.748-2.498c1.13 1.243 2.261 2.488 3.395 3.735 1.134 1.248 2.273 2.5 3.416 3.758v0c0.536 0.589 1.195 1.29 1.979 2.103 0.788 0.818 1.566 1.609 2.332 2.374 0.763 0.76 1.399 1.361 1.909 1.803v0l-2.822 2.565c-0.598-0.658-1.304-1.434-2.116-2.328-0.808-0.889-1.614-1.776-2.418-2.66-0.804-0.884-1.502-1.653-2.096-2.306v0c-1.214-1.336-2.388-2.602-3.519-3.797-1.127-1.191-2.063-2.107-2.808-2.749zM186.929 195.988v0c-0.469-0.516-0.706-1.103-0.713-1.761-0.007-0.649 0.243-1.203 0.749-1.663v0c0.511-0.464 1.099-0.671 1.763-0.621 0.674 0.051 1.246 0.334 1.715 0.851v0c0.455 0.501 0.679 1.092 0.67 1.772-0.004 0.676-0.262 1.247-0.773 1.712v0c-0.506 0.46-1.086 0.651-1.74 0.572-0.659-0.074-1.216-0.361-1.671-0.862z" fill="#f9744c" data-fill-palette-color="primary"></path><path d="M202.056 183.583v0c-2.302-1.572-3.709-3.22-4.22-4.943-0.511-1.723-0.202-3.413 0.928-5.068v0c0.846-1.239 1.974-2.12 3.385-2.644v0l1.987 2.369c-1.179 0.409-2.098 1.095-2.757 2.06v0c-0.543 0.795-0.673 1.598-0.391 2.409 0.291 0.81 1.092 1.662 2.402 2.557v0c0.329 0.225 0.866 0.591 1.612 1.1 0.746 0.509 1.593 1.087 2.541 1.735 0.948 0.647 1.889 1.289 2.82 1.925 0.937 0.64 1.771 1.209 2.5 1.707 0.724 0.494 1.231 0.84 1.521 1.039v0c1.48 1.011 2.935 1.952 4.366 2.823 1.43 0.872 2.607 1.503 3.53 1.892v0l-2.257 3.306c-1.431-0.977-2.936-2.004-4.514-3.082-1.573-1.074-3.117-2.128-4.629-3.161-1.508-1.029-2.894-1.976-4.161-2.841-1.261-0.861-2.308-1.576-3.142-2.144-0.828-0.565-1.335-0.911-1.521-1.039zM211.746 179.951l-6.866 10.057-2.229-1.522 6.866-10.057z" fill="#f9744c" data-fill-palette-color="primary"></path><path d="M229.493 156.41v0l-4.949 12.924-2.427-0.929 3.756-9.81c-1.494-0.572-2.79-0.603-3.888-0.092-1.101 0.517-1.892 1.404-2.374 2.663v0c-0.582 1.519-0.498 2.915 0.251 4.19 0.749 1.275 2.273 2.352 4.573 3.233v0c2.145 0.821 3.938 0.907 5.381 0.258 1.443-0.649 2.471-1.776 3.086-3.381v0c0.43-1.122 0.722-2.275 0.877-3.46 0.155-1.185 0.114-2.423-0.124-3.715v0l2.999 0.743c0.169 1.472 0.163 2.831-0.015 4.078-0.179 1.246-0.524 2.539-1.037 3.878v0c-0.565 1.475-1.43 2.715-2.597 3.718-1.172 1.001-2.577 1.636-4.215 1.905-1.642 0.26-3.445 0.013-5.411-0.739v0c-1.922-0.736-3.459-1.715-4.611-2.939-1.155-1.217-1.884-2.598-2.187-4.143-0.306-1.539-0.131-3.167 0.526-4.883v0c0.548-1.432 1.245-2.519 2.091-3.262 0.842-0.751 1.771-1.237 2.787-1.459 1.01-0.225 2.046-0.258 3.109-0.1 1.063 0.158 2.08 0.423 3.054 0.796v0c0.149 0.057 0.372 0.142 0.669 0.256 0.291 0.112 0.516 0.201 0.676 0.27z" fill="#f9744c" data-fill-palette-color="primary"></path><path d="M2.528 125.696c0-5.726 4.642-10.368 10.368-10.368 5.726 0 10.368 4.642 10.368 10.368 0 5.726-4.642 10.368-10.368 10.368-5.726 0-10.368-4.642-10.368-10.368z" fill="#f9744c" data-fill-palette-color="primary"></path><path d="M222.679 125.696c0-5.726 4.642-10.368 10.368-10.368 5.726 0 10.368 4.642 10.368 10.368 0 5.726-4.642 10.368-10.368 10.368-5.726 0-10.368-4.642-10.368-10.368z" fill="#f9744c" data-fill-palette-color="primary"></path></g><g id="text-1"></g></svg></g><g transform="matrix(1,0,0,1,46.923410063999995,264.366804)"><svg viewBox="0 0 151.825483872 6.985405584257827" height="6.985405584257827" width="151.825483872"><g transform="matrix(1,0,0,1,0,0)"><svg width="151.825483872" viewBox="3.78 -33.8 921.44 42.4" height="6.985405584257827" data-palette-color="#ffffff"><path d="M7.88 0L3.78 0 3.78-31.95 7.88-31.95 7.88 0ZM23.7 0L5 0 5-3.48 23.7-3.48 23.7 0ZM23.18-14.58L6.13-14.58 6.13-18.03 23.18-18.03 23.18-14.58ZM23.55-28.48L4.98-28.48 4.98-31.95 23.55-31.95 23.55-28.48ZM63.97 0L59.92 0 59.92-15.28Q59.92-17.2 59.44-18.61 58.95-20.03 57.84-20.8 56.72-21.58 54.85-21.58L54.85-21.58Q53.07-21.58 51.77-20.85 50.47-20.13 49.67-18.91 48.87-17.7 48.55-16.15L48.55-16.15 47.92-19.03 48.42-19.03Q48.82-20.6 49.77-21.95 50.72-23.3 52.35-24.13 53.97-24.95 56.37-24.95L56.37-24.95Q59.1-24.95 60.76-23.88 62.42-22.8 63.2-20.74 63.97-18.68 63.97-15.73L63.97-15.73 63.97 0ZM33.5 0L29.45 0 29.45-24.4 33.5-24.4 33.32-18.55 33.5-18.3 33.5 0ZM48.72 0L44.7 0 44.7-15.28Q44.7-17.2 44.21-18.61 43.72-20.03 42.62-20.8 41.52-21.58 39.65-21.58L39.65-21.58Q37.85-21.58 36.55-20.85 35.25-20.13 34.45-18.89 33.65-17.65 33.32-16.07L33.32-16.07 32.57-18.95 33.47-18.95Q33.85-20.6 34.77-21.96 35.7-23.33 37.29-24.14 38.87-24.95 41.15-24.95L41.15-24.95Q44.52-24.95 46.29-23.2 48.05-21.45 48.5-18.1L48.5-18.1Q48.62-17.6 48.67-17.01 48.72-16.43 48.72-15.85L48.72-15.85 48.72 0ZM82.27 0.53L82.27 0.53Q80.02 0.53 78.36-0.23 76.7-0.98 75.67-2.38 74.65-3.78 74.3-5.63L74.3-5.63 72.95-5.63 74.17-9.43Q74.3-7.23 75.21-5.76 76.12-4.3 77.65-3.58 79.17-2.85 81.1-2.85L81.1-2.85Q84.15-2.85 85.76-4.65 87.37-6.45 87.37-10L87.37-10 87.37-14.58Q87.37-18.05 85.75-19.85 84.12-21.65 81.02-21.65L81.02-21.65Q79.17-21.65 77.75-20.93 76.32-20.2 75.38-18.95 74.45-17.7 74.1-16.1L74.1-16.1 73.17-18.93 74.32-18.93Q74.7-20.6 75.66-21.96 76.62-23.33 78.3-24.14 79.97-24.95 82.45-24.95L82.45-24.95Q86.85-24.95 89.15-22.21 91.45-19.48 91.45-14.28L91.45-14.28 91.45-10.23Q91.45-4.98 89.11-2.23 86.77 0.53 82.27 0.53ZM74.3 0L70.25 0 70.25-33.13 74.27-33.13 74.27-25.18 74.15-18.18 74.17-17.4 74.17-7.2 74.12-5.9 74.3 0ZM100.94-14.93L100.94-14.93 100.02-18.05 101.02-18.1Q101.82-21.2 103.77-22.99 105.72-24.78 108.94-24.78L108.94-24.78Q109.74-24.78 110.38-24.65 111.02-24.53 111.52-24.35L111.52-24.35 111.77-20.43Q111.14-20.63 110.38-20.75 109.62-20.88 108.69-20.88L108.69-20.88Q105.94-20.88 103.91-19.35 101.87-17.82 100.94-14.93ZM101.14 0L97.09 0 97.09-24.4 101.04-24.4 100.84-17.2 101.14-16.9 101.14 0ZM134.24 0L130.22 0 130.39-5.93 130.24-6.55 130.24-14.33 130.27-15.75Q130.27-18.73 128.75-20.15 127.24-21.58 123.97-21.58L123.97-21.58Q121.34-21.58 119.15-20.83 116.97-20.08 115.27-19.07L115.27-19.07 115.64-22.53Q116.59-23.1 117.9-23.66 119.22-24.23 120.9-24.6 122.59-24.98 124.62-24.98L124.62-24.98Q127.24-24.98 129.08-24.34 130.92-23.7 132.05-22.5 133.19-21.3 133.72-19.6 134.24-17.9 134.24-15.8L134.24-15.8 134.24 0ZM121.82 0.53L121.82 0.53Q118.19 0.53 116.25-1.24 114.32-3 114.32-6.28L114.32-6.28 114.32-7Q114.32-10.38 116.4-12.04 118.49-13.7 123.04-14.35L123.04-14.35 130.77-15.45 130.99-12.5 123.54-11.43Q120.74-11.03 119.54-10.06 118.34-9.1 118.34-7.23L118.34-7.23 118.34-6.83Q118.34-4.9 119.53-3.88 120.72-2.85 123.09-2.85L123.09-2.85Q125.19-2.85 126.69-3.58 128.19-4.3 129.12-5.53 130.04-6.75 130.37-8.25L130.37-8.25 130.99-5.5 130.22-5.5Q129.87-3.9 128.9-2.53 127.94-1.15 126.22-0.31 124.49 0.53 121.82 0.53ZM149.84 0.55L149.84 0.55Q144.59 0.55 142.03-2.29 139.46-5.13 139.46-10.33L139.46-10.33 139.46-14.13Q139.46-19.35 142.04-22.16 144.61-24.98 149.84-24.98L149.84-24.98Q151.39-24.98 152.66-24.69 153.94-24.4 154.95-23.94 155.96-23.48 156.66-22.98L156.66-22.98 157.01-19.45Q155.84-20.35 154.23-20.98 152.61-21.6 150.44-21.6L150.44-21.6Q146.94-21.6 145.23-19.66 143.51-17.73 143.51-14.03L143.51-14.03 143.51-10.43Q143.51-6.8 145.23-4.85 146.94-2.9 150.44-2.9L150.44-2.9Q152.69-2.9 154.33-3.53 155.96-4.15 157.24-5.05L157.24-5.05 156.86-1.48Q155.76-0.73 153.99-0.09 152.21 0.55 149.84 0.55ZM172.39 0.55L172.39 0.55Q166.81 0.55 163.99-2.18 161.16-4.9 161.16-9.98L161.16-9.98 161.16-14.33Q161.16-19.48 163.79-22.26 166.41-25.05 171.46-25.05L171.46-25.05Q174.86-25.05 177.14-23.79 179.41-22.53 180.56-20.2 181.71-17.88 181.71-14.65L181.71-14.65 181.71-13.75Q181.71-12.95 181.65-12.15 181.59-11.35 181.49-10.58L181.49-10.58 177.76-10.58Q177.81-11.78 177.82-12.85 177.84-13.93 177.84-14.83L177.84-14.83Q177.84-17.05 177.12-18.59 176.41-20.13 175-20.94 173.59-21.75 171.46-21.75L171.46-21.75Q168.31-21.75 166.74-19.93 165.16-18.1 165.16-14.7L165.16-14.7 165.16-12.38 165.19-11.88 165.19-9.55Q165.19-8.03 165.64-6.8 166.09-5.58 167.05-4.69 168.01-3.8 169.5-3.34 170.99-2.88 173.04-2.88L173.04-2.88Q175.41-2.88 177.46-3.5 179.51-4.13 181.31-5.2L181.31-5.2 180.94-1.7Q179.31-0.68 177.16-0.06 175.01 0.55 172.39 0.55ZM180.64-10.58L163.29-10.58 163.29-13.63 180.64-13.63 180.64-10.58ZM216.13 0L212.11 0 212.28-5.93 212.13-6.55 212.13-14.33 212.16-15.75Q212.16-18.73 210.64-20.15 209.13-21.58 205.86-21.58L205.86-21.58Q203.23-21.58 201.04-20.83 198.86-20.08 197.16-19.07L197.16-19.07 197.53-22.53Q198.48-23.1 199.79-23.66 201.11-24.23 202.79-24.6 204.48-24.98 206.51-24.98L206.51-24.98Q209.13-24.98 210.97-24.34 212.81-23.7 213.94-22.5 215.08-21.3 215.61-19.6 216.13-17.9 216.13-15.8L216.13-15.8 216.13 0ZM203.71 0.53L203.71 0.53Q200.08 0.53 198.14-1.24 196.21-3 196.21-6.28L196.21-6.28 196.21-7Q196.21-10.38 198.29-12.04 200.38-13.7 204.93-14.35L204.93-14.35 212.66-15.45 212.88-12.5 205.43-11.43Q202.63-11.03 201.43-10.06 200.23-9.1 200.23-7.23L200.23-7.23 200.23-6.83Q200.23-4.9 201.42-3.88 202.61-2.85 204.98-2.85L204.98-2.85Q207.08-2.85 208.58-3.58 210.08-4.3 211.01-5.53 211.93-6.75 212.26-8.25L212.26-8.25 212.88-5.5 212.11-5.5Q211.76-3.9 210.79-2.53 209.83-1.15 208.11-0.31 206.38 0.53 203.71 0.53ZM242.23 0.58L242.23 0.58Q239.93 0.58 238.01 0.2 236.1-0.18 234.6-0.73 233.1-1.28 232.1-1.83L232.1-1.83 231.68-5.95Q233.6-4.8 236.21-3.94 238.83-3.08 241.9-3.08L241.9-3.08Q245.6-3.08 247.38-4.39 249.15-5.7 249.15-8.33L249.15-8.33 249.15-8.72Q249.15-10.45 248.45-11.55 247.75-12.65 246.09-13.4 244.43-14.15 241.58-14.8L241.58-14.8Q237.98-15.65 235.81-16.81 233.65-17.98 232.69-19.73 231.73-21.48 231.73-24.08L231.73-24.08 231.73-24.3Q231.73-28.23 234.3-30.36 236.88-32.5 242.1-32.5L242.1-32.5Q245.53-32.5 247.94-31.8 250.35-31.1 251.88-30.25L251.88-30.25 252.25-26.45Q250.48-27.5 248.11-28.24 245.75-28.98 242.7-28.98L242.7-28.98Q240.28-28.98 238.78-28.4 237.28-27.83 236.6-26.75 235.93-25.68 235.93-24.15L235.93-24.15 235.93-24.05Q235.93-22.5 236.59-21.4 237.25-20.3 238.91-19.5 240.58-18.7 243.65-17.95L243.65-17.95Q247.18-17.13 249.3-16.05 251.43-14.98 252.39-13.25 253.35-11.53 253.35-8.75L253.35-8.75 253.35-8.22Q253.35-3.9 250.56-1.66 247.78 0.58 242.23 0.58ZM258.6-24.4L262.62-24.4 262.62-9.22Q262.62-7.3 263.16-5.86 263.7-4.42 264.92-3.64 266.15-2.85 268.22-2.85L268.22-2.85Q270.17-2.85 271.57-3.56 272.97-4.28 273.86-5.53 274.75-6.78 275.07-8.35L275.07-8.35 275.8-5.48 274.92-5.48Q274.55-3.83 273.55-2.46 272.55-1.1 270.86-0.29 269.17 0.53 266.7 0.53L266.7 0.53Q263.82 0.53 262.04-0.56 260.25-1.65 259.42-3.74 258.6-5.83 258.6-8.78L258.6-8.78 258.6-24.4ZM274.9-24.4L278.95-24.4 278.95 0 274.9 0 275.07-5.85 274.9-6.1 274.9-24.4ZM293.17 0.55L293.17 0.55Q290.22 0.55 288.02-0.09 285.82-0.73 284.37-1.48L284.37-1.48 284-5.23Q285.82-4.28 288.01-3.58 290.2-2.88 292.97-2.88L292.97-2.88Q295.8-2.88 297.22-3.78 298.65-4.67 298.65-6.45L298.65-6.45 298.65-6.73Q298.65-7.88 298.11-8.63 297.57-9.38 296.17-9.95 294.77-10.53 292.2-11.1L292.2-11.1Q289.12-11.78 287.35-12.69 285.57-13.6 284.81-14.95 284.05-16.3 284.05-18.25L284.05-18.25 284.05-18.48Q284.05-21.68 286.27-23.33 288.5-24.98 292.97-24.98L292.97-24.98Q295.85-24.98 297.96-24.33 300.07-23.68 301.42-22.88L301.42-22.88 301.8-19.45Q300.17-20.4 298.07-21.03 295.97-21.65 293.35-21.65L293.35-21.65Q291.45-21.65 290.27-21.26 289.1-20.88 288.57-20.16 288.05-19.45 288.05-18.45L288.05-18.45 288.05-18.25Q288.05-17.15 288.57-16.39 289.1-15.63 290.46-15.06 291.82-14.5 294.25-13.98L294.25-13.98Q297.37-13.35 299.21-12.48 301.05-11.6 301.85-10.26 302.65-8.93 302.65-6.83L302.65-6.83 302.65-6.4Q302.65-2.95 300.25-1.2 297.85 0.55 293.17 0.55ZM316.47 0.5L316.47 0.5Q313.64 0.5 311.92-0.35 310.19-1.2 309.42-2.93 308.64-4.65 308.64-7.23L308.64-7.23 308.64-22.63 312.64-22.63 312.64-7.7Q312.64-5.3 313.74-4.16 314.84-3.03 317.44-3.03L317.44-3.03Q318.92-3.03 320.28-3.35 321.64-3.68 322.84-4.28L322.84-4.28 322.47-0.8Q321.29-0.2 319.72 0.15 318.14 0.5 316.47 0.5ZM322.22-20.8L304.64-20.8 304.64-24.05 322.59-24.05 322.22-20.8ZM312.54-23.65L308.67-23.65 308.64-30.5 312.72-31.03 312.54-23.65ZM345.87 0L341.84 0 342.02-5.93 341.87-6.55 341.87-14.33 341.89-15.75Q341.89-18.73 340.38-20.15 338.87-21.58 335.59-21.58L335.59-21.58Q332.97-21.58 330.78-20.83 328.59-20.08 326.89-19.07L326.89-19.07 327.27-22.53Q328.22-23.1 329.53-23.66 330.84-24.23 332.53-24.6 334.22-24.98 336.24-24.98L336.24-24.98Q338.87-24.98 340.7-24.34 342.54-23.7 343.68-22.5 344.82-21.3 345.34-19.6 345.87-17.9 345.87-15.8L345.87-15.8 345.87 0ZM333.44 0.53L333.44 0.53Q329.82 0.53 327.88-1.24 325.94-3 325.94-6.28L325.94-6.28 325.94-7Q325.94-10.38 328.03-12.04 330.12-13.7 334.67-14.35L334.67-14.35 342.39-15.45 342.62-12.5 335.17-11.43Q332.37-11.03 331.17-10.06 329.97-9.1 329.97-7.23L329.97-7.23 329.97-6.83Q329.97-4.9 331.15-3.88 332.34-2.85 334.72-2.85L334.72-2.85Q336.82-2.85 338.32-3.58 339.82-4.3 340.74-5.53 341.67-6.75 341.99-8.25L341.99-8.25 342.62-5.5 341.84-5.5Q341.49-3.9 340.53-2.53 339.57-1.15 337.84-0.31 336.12 0.53 333.44 0.53ZM356.19 0L352.14 0 352.14-24.4 356.19-24.4 356.19 0ZM354.16-28.4L354.16-28.4Q352.91-28.4 352.3-29.06 351.69-29.73 351.69-30.88L351.69-30.88 351.69-31Q351.69-32.18 352.3-32.83 352.91-33.48 354.16-33.48L354.16-33.48Q355.41-33.48 356.04-32.83 356.66-32.18 356.66-31L356.66-31 356.66-30.88Q356.66-29.7 356.04-29.05 355.41-28.4 354.16-28.4ZM383.26 0L379.21 0 379.21-15.18Q379.21-17.15 378.67-18.57 378.14-20 376.92-20.79 375.71-21.58 373.61-21.58L373.61-21.58Q371.69-21.58 370.27-20.85 368.86-20.13 367.99-18.89 367.11-17.65 366.76-16.07L366.76-16.07 366.04-18.95 366.91-18.95Q367.31-20.6 368.31-21.96 369.31-23.33 371-24.14 372.69-24.95 375.14-24.95L375.14-24.95Q378.04-24.95 379.82-23.85 381.61-22.75 382.44-20.69 383.26-18.63 383.26-15.63L383.26-15.63 383.26 0ZM366.94 0L362.89 0 362.89-24.4 366.94-24.4 366.76-18.55 366.94-18.32 366.94 0ZM408.03 0L404.01 0 404.18-5.93 404.03-6.55 404.03-14.33 404.06-15.75Q404.06-18.73 402.55-20.15 401.03-21.58 397.76-21.58L397.76-21.58Q395.13-21.58 392.94-20.83 390.76-20.08 389.06-19.07L389.06-19.07 389.43-22.53Q390.38-23.1 391.69-23.66 393.01-24.23 394.69-24.6 396.38-24.98 398.41-24.98L398.41-24.98Q401.03-24.98 402.87-24.34 404.71-23.7 405.85-22.5 406.98-21.3 407.51-19.6 408.03-17.9 408.03-15.8L408.03-15.8 408.03 0ZM395.61 0.53L395.61 0.53Q391.98 0.53 390.05-1.24 388.11-3 388.11-6.28L388.11-6.28 388.11-7Q388.11-10.38 390.19-12.04 392.28-13.7 396.83-14.35L396.83-14.35 404.56-15.45 404.78-12.5 397.33-11.43Q394.53-11.03 393.33-10.06 392.13-9.1 392.13-7.23L392.13-7.23 392.13-6.83Q392.13-4.9 393.32-3.88 394.51-2.85 396.88-2.85L396.88-2.85Q398.98-2.85 400.48-3.58 401.98-4.3 402.91-5.53 403.83-6.75 404.16-8.25L404.16-8.25 404.78-5.5 404.01-5.5Q403.66-3.9 402.69-2.53 401.73-1.15 400.01-0.31 398.28 0.53 395.61 0.53ZM426.25 0.53L426.25 0.53Q424 0.53 422.34-0.23 420.68-0.98 419.66-2.38 418.63-3.78 418.28-5.63L418.28-5.63 416.93-5.63 418.16-9.43Q418.28-7.23 419.19-5.76 420.11-4.3 421.63-3.58 423.16-2.85 425.08-2.85L425.08-2.85Q428.13-2.85 429.74-4.65 431.36-6.45 431.36-10L431.36-10 431.36-14.58Q431.36-18.05 429.73-19.85 428.11-21.65 425-21.65L425-21.65Q423.16-21.65 421.73-20.93 420.31-20.2 419.37-18.95 418.43-17.7 418.08-16.1L418.08-16.1 417.16-18.93 418.31-18.93Q418.68-20.6 419.64-21.96 420.61-23.33 422.28-24.14 423.95-24.95 426.43-24.95L426.43-24.95Q430.83-24.95 433.13-22.21 435.43-19.48 435.43-14.28L435.43-14.28 435.43-10.23Q435.43-4.98 433.09-2.23 430.75 0.53 426.25 0.53ZM418.28 0L414.23 0 414.23-33.13 418.25-33.13 418.25-25.18 418.13-18.18 418.16-17.4 418.16-7.2 418.11-5.9 418.28 0ZM445.23 0L441.2 0 441.2-33.13 445.23-33.13 445.23 0ZM462.2 0.55L462.2 0.55Q456.63 0.55 453.8-2.18 450.98-4.9 450.98-9.98L450.98-9.98 450.98-14.33Q450.98-19.48 453.6-22.26 456.23-25.05 461.28-25.05L461.28-25.05Q464.68-25.05 466.95-23.79 469.23-22.53 470.38-20.2 471.53-17.88 471.53-14.65L471.53-14.65 471.53-13.75Q471.53-12.95 471.46-12.15 471.4-11.35 471.3-10.58L471.3-10.58 467.58-10.58Q467.63-11.78 467.64-12.85 467.65-13.93 467.65-14.83L467.65-14.83Q467.65-17.05 466.94-18.59 466.23-20.13 464.81-20.94 463.4-21.75 461.28-21.75L461.28-21.75Q458.13-21.75 456.55-19.93 454.98-18.1 454.98-14.7L454.98-14.7 454.98-12.38 455-11.88 455-9.55Q455-8.03 455.45-6.8 455.9-5.58 456.86-4.69 457.83-3.8 459.31-3.34 460.8-2.88 462.85-2.88L462.85-2.88Q465.23-2.88 467.28-3.5 469.33-4.13 471.13-5.2L471.13-5.2 470.75-1.7Q469.13-0.68 466.98-0.06 464.83 0.55 462.2 0.55ZM470.45-10.58L453.1-10.58 453.1-13.63 470.45-13.63 470.45-10.58ZM505.95 0L501.92 0 502.1-5.93 501.95-6.55 501.95-14.33 501.97-15.75Q501.97-18.73 500.46-20.15 498.95-21.58 495.67-21.58L495.67-21.58Q493.05-21.58 490.86-20.83 488.67-20.08 486.97-19.07L486.97-19.07 487.35-22.53Q488.3-23.1 489.61-23.66 490.92-24.23 492.61-24.6 494.3-24.98 496.32-24.98L496.32-24.98Q498.95-24.98 500.78-24.34 502.62-23.7 503.76-22.5 504.9-21.3 505.42-19.6 505.95-17.9 505.95-15.8L505.95-15.8 505.95 0ZM493.52 0.53L493.52 0.53Q489.9 0.53 487.96-1.24 486.02-3 486.02-6.28L486.02-6.28 486.02-7Q486.02-10.38 488.11-12.04 490.2-13.7 494.75-14.35L494.75-14.35 502.47-15.45 502.7-12.5 495.25-11.43Q492.45-11.03 491.25-10.06 490.05-9.1 490.05-7.23L490.05-7.23 490.05-6.83Q490.05-4.9 491.23-3.88 492.42-2.85 494.8-2.85L494.8-2.85Q496.9-2.85 498.4-3.58 499.9-4.3 500.82-5.53 501.75-6.75 502.07-8.25L502.07-8.25 502.7-5.5 501.92-5.5Q501.57-3.9 500.61-2.53 499.65-1.15 497.92-0.31 496.2 0.53 493.52 0.53ZM532.52 0L528.47 0 528.47-15.18Q528.47-17.15 527.93-18.57 527.39-20 526.18-20.79 524.97-21.58 522.87-21.58L522.87-21.58Q520.94-21.58 519.53-20.85 518.12-20.13 517.24-18.89 516.37-17.65 516.02-16.07L516.02-16.07 515.29-18.95 516.17-18.95Q516.57-20.6 517.57-21.96 518.57-23.33 520.25-24.14 521.94-24.95 524.39-24.95L524.39-24.95Q527.29-24.95 529.08-23.85 530.87-22.75 531.69-20.69 532.52-18.63 532.52-15.63L532.52-15.63 532.52 0ZM516.19 0L512.14 0 512.14-24.4 516.19-24.4 516.02-18.55 516.19-18.32 516.19 0ZM546.84 0.53L546.84 0.53Q542.44 0.53 540.14-2.2 537.84-4.93 537.84-10.15L537.84-10.15 537.84-14.18Q537.84-19.43 540.16-22.19 542.49-24.95 547.01-24.95L547.01-24.95Q549.26-24.95 550.91-24.19 552.57-23.43 553.59-22.05 554.62-20.68 554.97-18.8L554.97-18.8 556.29-18.8 555.09-15.08Q555.01-17.23 554.13-18.69 553.24-20.15 551.73-20.9 550.22-21.65 548.26-21.65L548.26-21.65Q545.16-21.65 543.53-19.85 541.89-18.05 541.89-14.55L541.89-14.55 541.89-9.9Q541.89-6.45 543.53-4.65 545.16-2.85 548.26-2.85L548.26-2.85Q550.12-2.85 551.54-3.56 552.97-4.28 553.9-5.54 554.84-6.8 555.19-8.4L555.19-8.4 556.19-5.5 554.99-5.5Q554.64-3.85 553.65-2.48 552.66-1.1 551-0.29 549.34 0.53 546.84 0.53ZM559.04 0L554.99 0 555.16-5.9 555.09-7.2 555.09-17.4 555.12-18.25 555.01-25.18 555.01-33.13 559.04-33.13 559.04 0ZM580.78-31.95L580.78 0 576.63 0 576.63-31.95 580.78-31.95ZM600.08-31.95L600.08 0 595.93 0 595.93-31.95 600.08-31.95ZM579.01-14.73L579.01-18.23 597.58-18.23 597.58-14.73 579.01-14.73ZM617.41 0.55L617.41 0.55Q611.83 0.55 609.01-2.18 606.18-4.9 606.18-9.98L606.18-9.98 606.18-14.33Q606.18-19.48 608.81-22.26 611.43-25.05 616.48-25.05L616.48-25.05Q619.88-25.05 622.16-23.79 624.43-22.53 625.58-20.2 626.73-17.88 626.73-14.65L626.73-14.65 626.73-13.75Q626.73-12.95 626.67-12.15 626.61-11.35 626.51-10.58L626.51-10.58 622.78-10.58Q622.83-11.78 622.84-12.85 622.86-13.93 622.86-14.83L622.86-14.83Q622.86-17.05 622.14-18.59 621.43-20.13 620.02-20.94 618.61-21.75 616.48-21.75L616.48-21.75Q613.33-21.75 611.76-19.93 610.18-18.1 610.18-14.7L610.18-14.7 610.18-12.38 610.21-11.88 610.21-9.55Q610.21-8.03 610.66-6.8 611.11-5.58 612.07-4.69 613.03-3.8 614.52-3.34 616.01-2.88 618.06-2.88L618.06-2.88Q620.43-2.88 622.48-3.5 624.53-4.13 626.33-5.2L626.33-5.2 625.96-1.7Q624.33-0.68 622.18-0.06 620.03 0.55 617.41 0.55ZM625.66-10.58L608.31-10.58 608.31-13.63 625.66-13.63 625.66-10.58ZM650.63 0L646.6 0 646.78-5.93 646.63-6.55 646.63-14.33 646.65-15.75Q646.65-18.73 645.14-20.15 643.63-21.58 640.35-21.58L640.35-21.58Q637.73-21.58 635.54-20.83 633.35-20.08 631.65-19.07L631.65-19.07 632.03-22.53Q632.98-23.1 634.29-23.66 635.6-24.23 637.29-24.6 638.98-24.98 641-24.98L641-24.98Q643.63-24.98 645.47-24.34 647.3-23.7 648.44-22.5 649.58-21.3 650.1-19.6 650.63-17.9 650.63-15.8L650.63-15.8 650.63 0ZM638.2 0.53L638.2 0.53Q634.58 0.53 632.64-1.24 630.7-3 630.7-6.28L630.7-6.28 630.7-7Q630.7-10.38 632.79-12.04 634.88-13.7 639.43-14.35L639.43-14.35 647.15-15.45 647.38-12.5 639.93-11.43Q637.13-11.03 635.93-10.06 634.73-9.1 634.73-7.23L634.73-7.23 634.73-6.83Q634.73-4.9 635.92-3.88 637.1-2.85 639.48-2.85L639.48-2.85Q641.58-2.85 643.08-3.58 644.58-4.3 645.5-5.53 646.43-6.75 646.75-8.25L646.75-8.25 647.38-5.5 646.6-5.5Q646.25-3.9 645.29-2.53 644.33-1.15 642.6-0.31 640.88 0.53 638.2 0.53ZM660.98 0L656.95 0 656.95-33.13 660.98-33.13 660.98 0ZM676.57 0.5L676.57 0.5Q673.75 0.5 672.02-0.35 670.3-1.2 669.52-2.93 668.75-4.65 668.75-7.23L668.75-7.23 668.75-22.63 672.75-22.63 672.75-7.7Q672.75-5.3 673.85-4.16 674.95-3.03 677.55-3.03L677.55-3.03Q679.02-3.03 680.39-3.35 681.75-3.68 682.95-4.28L682.95-4.28 682.57-0.8Q681.4-0.2 679.82 0.15 678.25 0.5 676.57 0.5ZM682.32-20.8L664.75-20.8 664.75-24.05 682.7-24.05 682.32-20.8ZM672.65-23.65L668.77-23.65 668.75-30.5 672.82-31.03 672.65-23.65ZM707.85 0L703.8 0 703.8-15.18Q703.8-17.15 703.26-18.57 702.72-20 701.51-20.79 700.3-21.58 698.2-21.58L698.2-21.58Q696.27-21.58 694.87-20.85 693.47-20.13 692.61-18.89 691.75-17.65 691.4-16.07L691.4-16.07 690.5-18.95 691.55-18.95Q691.92-20.6 692.92-21.96 693.92-23.33 695.61-24.14 697.3-24.95 699.72-24.95L699.72-24.95Q702.62-24.95 704.41-23.85 706.2-22.75 707.02-20.69 707.85-18.63 707.85-15.63L707.85-15.63 707.85 0ZM691.52 0L687.47 0 687.47-33.13 691.5-33.13 691.5-25.18 691.37-18.18 691.52-17.85 691.52 0ZM722.77-3.78L725.09-3.78 722.97-2.85 730.27-24.4 734.44-24.4 722.97 8.6 718.87 8.6 722.72-2.55 724.49-1 719.89-1 711.92-24.4 716.12-24.4 722.77-3.78ZM753.96-31.95L753.96 0 749.81 0 749.81-31.95 753.96-31.95ZM752.04 0L752.04-3.53 768.89-3.53 768.89 0 752.04 0ZM777.81 0L773.76 0 773.76-24.4 777.81-24.4 777.81 0ZM775.79-28.4L775.79-28.4Q774.54-28.4 773.92-29.06 773.31-29.73 773.31-30.88L773.31-30.88 773.31-31Q773.31-32.18 773.92-32.83 774.54-33.48 775.79-33.48L775.79-33.48Q777.04-33.48 777.66-32.83 778.29-32.18 778.29-31L778.29-31 778.29-30.88Q778.29-29.7 777.66-29.05 777.04-28.4 775.79-28.4ZM792.71-33.8L792.71-33.8Q794.58-33.8 796.07-33.46 797.56-33.13 798.81-32.63L798.81-32.63 799.21-29.45Q797.98-29.9 796.75-30.16 795.51-30.43 793.96-30.43L793.96-30.43Q792.08-30.43 790.95-29.94 789.81-29.45 789.32-28.56 788.83-27.68 788.83-26.43L788.83-26.43 788.83-26.3Q788.83-25.43 789.06-24.64 789.28-23.85 789.56-23.2L789.56-23.2 786.83-23.1 786.83-23.6Q786.06-24.2 785.47-25.28 784.88-26.35 784.88-27.78L784.88-27.78 784.88-27.9Q784.88-30.58 786.78-32.19 788.68-33.8 792.71-33.8ZM789.73 0L785.71 0 785.71-22.23 789.73-22.23 789.73 0ZM798.73-20.25L781.68-20.25 781.68-23.48 787.26-23.45 788.91-23.48 799.11-23.48 798.73-20.25ZM813.53 0.55L813.53 0.55Q807.96 0.55 805.13-2.18 802.31-4.9 802.31-9.98L802.31-9.98 802.31-14.33Q802.31-19.48 804.93-22.26 807.56-25.05 812.61-25.05L812.61-25.05Q816.01-25.05 818.28-23.79 820.56-22.53 821.71-20.2 822.86-17.88 822.86-14.65L822.86-14.65 822.86-13.75Q822.86-12.95 822.79-12.15 822.73-11.35 822.63-10.58L822.63-10.58 818.91-10.58Q818.96-11.78 818.97-12.85 818.98-13.93 818.98-14.83L818.98-14.83Q818.98-17.05 818.27-18.59 817.56-20.13 816.14-20.94 814.73-21.75 812.61-21.75L812.61-21.75Q809.46-21.75 807.88-19.93 806.31-18.1 806.31-14.7L806.31-14.7 806.31-12.38 806.33-11.88 806.33-9.55Q806.33-8.03 806.78-6.8 807.23-5.58 808.19-4.69 809.16-3.8 810.64-3.34 812.13-2.88 814.18-2.88L814.18-2.88Q816.56-2.88 818.61-3.5 820.66-4.13 822.46-5.2L822.46-5.2 822.08-1.7Q820.46-0.68 818.31-0.06 816.16 0.55 813.53 0.55ZM821.78-10.58L804.43-10.58 804.43-13.63 821.78-13.63 821.78-10.58ZM835.88 0.55L835.88 0.55Q832.93 0.55 830.73-0.09 828.53-0.73 827.08-1.48L827.08-1.48 826.7-5.23Q828.53-4.28 830.72-3.58 832.9-2.88 835.68-2.88L835.68-2.88Q838.5-2.88 839.93-3.78 841.35-4.67 841.35-6.45L841.35-6.45 841.35-6.73Q841.35-7.88 840.82-8.63 840.28-9.38 838.88-9.95 837.48-10.53 834.9-11.1L834.9-11.1Q831.83-11.78 830.05-12.69 828.28-13.6 827.52-14.95 826.75-16.3 826.75-18.25L826.75-18.25 826.75-18.48Q826.75-21.68 828.98-23.33 831.2-24.98 835.68-24.98L835.68-24.98Q838.55-24.98 840.67-24.33 842.78-23.68 844.13-22.88L844.13-22.88 844.5-19.45Q842.88-20.4 840.78-21.03 838.68-21.65 836.05-21.65L836.05-21.65Q834.15-21.65 832.98-21.26 831.8-20.88 831.28-20.16 830.75-19.45 830.75-18.45L830.75-18.45 830.75-18.25Q830.75-17.15 831.28-16.39 831.8-15.63 833.17-15.06 834.53-14.5 836.95-13.98L836.95-13.98Q840.08-13.35 841.92-12.48 843.75-11.6 844.55-10.26 845.35-8.93 845.35-6.83L845.35-6.83 845.35-6.4Q845.35-2.95 842.95-1.2 840.55 0.55 835.88 0.55ZM859.18 0.5L859.18 0.5Q856.35 0.5 854.63-0.35 852.9-1.2 852.13-2.93 851.35-4.65 851.35-7.23L851.35-7.23 851.35-22.63 855.35-22.63 855.35-7.7Q855.35-5.3 856.45-4.16 857.55-3.03 860.15-3.03L860.15-3.03Q861.63-3.03 862.99-3.35 864.35-3.68 865.55-4.28L865.55-4.28 865.18-0.8Q864-0.2 862.43 0.15 860.85 0.5 859.18 0.5ZM864.93-20.8L847.35-20.8 847.35-24.05 865.3-24.05 864.93-20.8ZM855.25-23.65L851.38-23.65 851.35-30.5 855.43-31.03 855.25-23.65ZM878.72-3.78L881.05-3.78 878.92-2.85 886.22-24.4 890.4-24.4 878.92 8.6 874.82 8.6 878.67-2.55 880.45-1 875.85-1 867.87-24.4 872.07-24.4 878.72-3.78ZM898.92 0L894.9 0 894.9-33.13 898.92-33.13 898.92 0ZM915.89 0.55L915.89 0.55Q910.32 0.55 907.49-2.18 904.67-4.9 904.67-9.98L904.67-9.98 904.67-14.33Q904.67-19.48 907.29-22.26 909.92-25.05 914.97-25.05L914.97-25.05Q918.37-25.05 920.64-23.79 922.92-22.53 924.07-20.2 925.22-17.88 925.22-14.65L925.22-14.65 925.22-13.75Q925.22-12.95 925.16-12.15 925.09-11.35 924.99-10.58L924.99-10.58 921.27-10.58Q921.32-11.78 921.33-12.85 921.34-13.93 921.34-14.83L921.34-14.83Q921.34-17.05 920.63-18.59 919.92-20.13 918.51-20.94 917.09-21.75 914.97-21.75L914.97-21.75Q911.82-21.75 910.24-19.93 908.67-18.1 908.67-14.7L908.67-14.7 908.67-12.38 908.69-11.88 908.69-9.55Q908.69-8.03 909.14-6.8 909.59-5.58 910.56-4.69 911.52-3.8 913.01-3.34 914.49-2.88 916.54-2.88L916.54-2.88Q918.92-2.88 920.97-3.5 923.02-4.13 924.82-5.2L924.82-5.2 924.44-1.7Q922.82-0.68 920.67-0.06 918.52 0.55 915.89 0.55ZM924.14-10.58L906.79-10.58 906.79-13.63 924.14-13.63 924.14-10.58Z" opacity="1" transform="matrix(1,0,0,1,0,0)" fill="#ffffff" class="slogan-text-1" data-fill-palette-color="secondary" id="text-1"></path></svg></g></svg></g></svg></g></svg></g><g></g></svg></g></svg></g><defs></defs></svg><rect width="223.80578231459955" height="247.2" fill="none" stroke="none" visibility="hidden"></rect></g></svg></g></svg>